<?xml version="1.0" encoding="utf-8"?>
<!-- Generator: Adobe Illustrator 15.1.0, SVG Export Plug-In . SVG Version: 6.00 Build 0)  -->
<!DOCTYPE svg PUBLIC "-//W3C//DTD SVG 1.1//EN" "http://www.w3.org/Graphics/SVG/1.1/DTD/svg11.dtd">
<svg version="1.1" id="Layer_1" xmlns="http://www.w3.org/2000/svg" xmlns:xlink="http://www.w3.org/1999/xlink" x="0px" y="0px"
	 width="97.38px" height="92.75px" viewBox="0 0 97.38 92.75" enable-background="new 0 0 97.38 92.75" xml:space="preserve">
<g>
	<path fill="none" stroke="#FFFFFF" stroke-width="2" stroke-miterlimit="10" d="M95.495,46.21c0,24.852-21.154,45-47.248,45
		C22.153,91.211,1,71.062,1,46.21C1,21.361,22.153,1.214,48.247,1.214C74.34,1.214,95.495,21.361,95.495,46.21z"/>
	<g>
		<path fill="none" stroke="#FCFCFB" stroke-width="2" stroke-miterlimit="10" d="M74.518,65.059c0,0.715-0.58,1.295-1.295,1.295
			H23.271c-0.714,0-1.294-0.58-1.294-1.295V27.366c0-0.715,0.58-1.295,1.294-1.295h49.953c0.715,0,1.295,0.58,1.295,1.295V65.059z"
			/>
		
			<line fill="#FFFFFF" stroke="#FCFCFB" stroke-width="2" stroke-miterlimit="10" x1="21.977" y1="33.651" x2="74.518" y2="33.651"/>
		<line fill="#FFFFFF" stroke="#FCFCFB" stroke-miterlimit="10" x1="21.977" y1="58.562" x2="74.518" y2="58.562"/>
		<line fill="#FCFCFB" stroke="#FCFCFB" stroke-width="2" stroke-miterlimit="10" x1="30.86" y1="26.179" x2="30.86" y2="33.759"/>
		<line fill="#FCFCFB" stroke="#FCFCFB" stroke-width="2" stroke-miterlimit="10" x1="30.86" y1="58.562" x2="30.86" y2="66.143"/>
		
			<line fill="#FCFCFB" stroke="#FCFCFB" stroke-width="2" stroke-miterlimit="10" x1="39.597" y1="58.562" x2="39.597" y2="66.143"/>
		
			<line fill="#FCFCFB" stroke="#FCFCFB" stroke-width="2" stroke-miterlimit="10" x1="48.246" y1="58.562" x2="48.246" y2="66.143"/>
		
			<line fill="#FCFCFB" stroke="#FCFCFB" stroke-width="2" stroke-miterlimit="10" x1="56.897" y1="58.562" x2="56.897" y2="66.143"/>
		
			<line fill="#FCFCFB" stroke="#FCFCFB" stroke-width="2" stroke-miterlimit="10" x1="65.549" y1="58.562" x2="65.549" y2="66.143"/>
		
			<line fill="#FCFCFB" stroke="#FCFCFB" stroke-width="2" stroke-miterlimit="10" x1="39.381" y1="26.179" x2="39.381" y2="33.759"/>
		
			<line fill="#FCFCFB" stroke="#FCFCFB" stroke-width="2" stroke-miterlimit="10" x1="48.224" y1="26.179" x2="48.224" y2="33.759"/>
		
			<line fill="#FCFCFB" stroke="#FCFCFB" stroke-width="2" stroke-miterlimit="10" x1="56.852" y1="26.179" x2="56.852" y2="33.759"/>
		
			<line fill="#FCFCFB" stroke="#FCFCFB" stroke-width="2" stroke-miterlimit="10" x1="65.479" y1="26.179" x2="65.479" y2="33.759"/>
		<line fill="#FFFFFF" stroke="#F9F8F7" stroke-miterlimit="10" x1="43.803" y1="40.337" x2="43.803" y2="51.984"/>
		<line fill="#FFFFFF" stroke="#F9F8F7" stroke-miterlimit="10" x1="43.803" y1="51.984" x2="53.94" y2="46.212"/>
		<line fill="#FFFFFF" stroke="#F9F8F7" stroke-miterlimit="10" x1="53.94" y1="46.212" x2="43.803" y2="40.337"/>
	</g>
</g>
</svg>
