<svg xmlns="http://www.w3.org/2000/svg" width="235.2px" height="188.1px" viewBox="0 0 235.2 188.1">
<path fill="#f6f6f6" d="M14.4,117.5c0-58.2,38.4-94.8,54-108.6c4.8-3.6,9-4.2,13.2,0.6l9,8.4c3.6,4.2,3,10.2-1.8,13.8
		c-6.6,5.4-40.2,31.2-40.8,73.2c1.2,0,8.4-3,18.6-3c21.6,0,40.2,17.4,40.2,39.6s-18.6,40.2-43.2,40.2
		C42,181.7,14.4,166.7,14.4,117.5z M129.6,117.5c0-58.2,38.4-94.8,54-108.6c4.8-3.6,9.6-4.2,13.8,0.6l9,8.4
		c3.6,4.2,2.4,10.2-1.8,13.8c-6.6,5.4-40.2,31.2-40.8,73.2c0.6,0,8.4-3,18.6-3c21.6,0,40.2,17.4,40.2,39.6s-18.6,40.2-43.2,40.2
		C157.8,181.7,129.6,166.7,129.6,117.5z"/>
</svg>
