<svg xmlns="http://www.w3.org/2000/svg" width="1440" height="900"><path d="M725 432l-26-91-144 38z" fill="#ca5e28" stroke="#ca5e28" stroke-width="1.51"/><path d="M493 567l245 11-13-146z" fill="#ce632a" stroke="#ce632a" stroke-width="1.51"/><path d="M555 379l-62 188 232-135z" fill="#ca6029" stroke="#ca6029" stroke-width="1.51"/><path d="M490 241l-53 141 118-3z" fill="#cf5923" stroke="#cf5923" stroke-width="1.51"/><path d="M454 553l39 14 62-188z" fill="#cf5f27" stroke="#cf5f27" stroke-width="1.51"/><path d="M699 341L490 241l65 138z" fill="#ce5b25" stroke="#ce5b25" stroke-width="1.51"/><path d="M437 382l17 171 101-174z" fill="#cc5c26" stroke="#cc5c26" stroke-width="1.51"/><path d="M654 75l-151 31-13 135z" fill="#c85120" stroke="#c85120" stroke-width="1.51"/><path d="M940 337L817 200 699 341z" fill="#d05f26" stroke="#d05f26" stroke-width="1.51"/><path d="M940 337l-241 4 26 91z" fill="#cd6128" stroke="#cd6128" stroke-width="1.51"/><path d="M738 578l192-97-205-49z" fill="#ce662b" stroke="#ce662b" stroke-width="1.51"/><path d="M930 481l10-144-215 95z" fill="#cf642a" stroke="#cf642a" stroke-width="1.51"/><path d="M490 241l-152 27 99 114z" fill="#cf5521" stroke="#cf5521" stroke-width="1.51"/><path d="M503 106l-78 57 65 78z" fill="#cb511f" stroke="#cb511f" stroke-width="1.51"/><path d="M738 578l142 51 50-148z" fill="#d5692c" stroke="#d5692c" stroke-width="1.51"/><path d="M690 796l190-167-142-51z" fill="#d66c2f" stroke="#d66c2f" stroke-width="1.51"/><path d="M654 75L490 241l209 100z" fill="#cb5623" stroke="#cb5623" stroke-width="1.51"/><path d="M437 382L285 591l169-38z" fill="#ce5d25" stroke="#ce5d25" stroke-width="1.51"/><path d="M425 163l-87 105 152-27z" fill="#cc511f" stroke="#cc511f" stroke-width="1.51"/><path d="M817 200L654 75l45 266z" fill="#c85825" stroke="#c85825" stroke-width="1.51"/><path d="M930 481l118-141-108-3z" fill="#d4662a" stroke="#d4662a" stroke-width="1.51"/><path d="M880 629l97-94-47-54z" fill="#d86b2c" stroke="#d86b2c" stroke-width="1.51"/><path d="M493 567l197 229 48-218z" fill="#d5692c" stroke="#d5692c" stroke-width="1.51"/><path d="M454 553l18 176 21-162z" fill="#d86428" stroke="#d86428" stroke-width="1.51"/><path d="M285 591l187 138-18-176z" fill="#d66227" stroke="#d66227" stroke-width="1.51"/><path d="M654 75l-98-59-53 90z" fill="#c15121" stroke="#c15121" stroke-width="1.51"/><path d="M817 200L663 44l-9 31z" fill="#c25524" stroke="#c25524" stroke-width="1.51"/><path d="M472 729l218 67-197-229z" fill="#d8692e" stroke="#d8692e" stroke-width="1.51"/><path d="M191 407l94 184 152-209z" fill="#c95824" stroke="#c95824" stroke-width="1.51"/><path d="M391-67L257 90l168 73z" fill="#bf4a1f" stroke="#bf4a1f" stroke-width="1.51"/><path d="M663 44L556 16l98 59z" fill="#be5222" stroke="#be5222" stroke-width="1.51"/><path d="M940 337l44-166-167 29z" fill="#d35f25" stroke="#d35f25" stroke-width="1.51"/><path d="M817 200l66-158-220 2z" fill="#c45624" stroke="#c45624" stroke-width="1.51"/><path d="M1077 513l-29-173-118 141z" fill="#d36a2d" stroke="#d36a2d" stroke-width="1.51"/><path d="M1048 340l-64-169-44 166z" fill="#d76327" stroke="#d76327" stroke-width="1.51"/><path d="M472 729l146 99 72-32z" fill="#d97035" stroke="#d97035" stroke-width="1.51"/><path d="M880 629l49 105 48-199z" fill="#dd6f2e" stroke="#dd6f2e" stroke-width="1.51"/><path d="M977 535l100-22-147-32z" fill="#d76b2d" stroke="#d76b2d" stroke-width="1.51"/><path d="M690 796l239-62-49-105z" fill="#db7133" stroke="#db7133" stroke-width="1.51"/><path d="M922 851l7-117-239 62z" fill="#dd773a" stroke="#dd773a" stroke-width="1.51"/><path d="M984 171L883 42l-66 158z" fill="#ce5a24" stroke="#ce5a24" stroke-width="1.51"/><path d="M663 44l108-275L556 16z" fill="#b85224" stroke="#b85224" stroke-width="1.51"/><path d="M338 268L191 407l246-25z" fill="#cb5421" stroke="#cb5421" stroke-width="1.51"/><path d="M211 263l-20 144 147-139z" fill="#ca501f" stroke="#ca501f" stroke-width="1.51"/><path d="M211 263l127 5-81-178z" fill="#c84c1d" stroke="#c84c1d" stroke-width="1.51"/><path d="M1192 692l-115-179-100 22z" fill="#de7131" stroke="#de7131" stroke-width="1.51"/><path d="M257 90l81 178 87-105z" fill="#c94c1d" stroke="#c94c1d" stroke-width="1.51"/><path d="M472 729l48 208 98-109z" fill="#db733a" stroke="#db733a" stroke-width="1.51"/><path d="M285 591l33 157 154-19z" fill="#d6642a" stroke="#d6642a" stroke-width="1.51"/><path d="M124 664l194 84-33-157z" fill="#d35f28" stroke="#d35f28" stroke-width="1.51"/><path d="M391-67l34 230 78-57z" fill="#c14d20" stroke="#c14d20" stroke-width="1.51"/><path d="M1192 692l20-183-135 4z" fill="#df7433" stroke="#df7433" stroke-width="1.51"/><path d="M760 974l162-123-232-55z" fill="#dc7d42" stroke="#dc7d42" stroke-width="1.51"/><path d="M495-181L391-67l165 83z" fill="#bc4e21" stroke="#bc4e21" stroke-width="1.51"/><path d="M556 16L391-67l112 173z" fill="#be4e21" stroke="#be4e21" stroke-width="1.51"/><path d="M618 828l142 146-70-178z" fill="#d97940" stroke="#d97940" stroke-width="1.51"/><path d="M441 945l79-8-48-208z" fill="#dd753d" stroke="#dd753d" stroke-width="1.51"/><path d="M883 42l-70-179L663 44z" fill="#ba5525" stroke="#ba5525" stroke-width="1.51"/><path d="M1047-68l-234-69 70 179z" fill="#c15825" stroke="#c15825" stroke-width="1.51"/><path d="M318 748l123 197 31-216z" fill="#da6e35" stroke="#da6e35" stroke-width="1.51"/><path d="M191 407l-67 257 161-73z" fill="#cc5924" stroke="#cc5924" stroke-width="1.51"/><path d="M318 748l-21 212 144-15z" fill="#da723d" stroke="#da723d" stroke-width="1.51"/><path d="M37 443l87 221 67-257z" fill="#c35724" stroke="#c35724" stroke-width="1.51"/><path d="M391-67l-90 6-44 151z" fill="#b8491f" stroke="#b8491f" stroke-width="1.51"/><path d="M368-178L301-61l90-6z" fill="#b94a1f" stroke="#b94a1f" stroke-width="1.51"/><path d="M688 1006l-70-178-98 109z" fill="#db7a42" stroke="#db7a42" stroke-width="1.51"/><path d="M688 1006l72-32-142-146z" fill="#d97c44" stroke="#d97c44" stroke-width="1.51"/><path d="M1077 513l135-4-164-169z" fill="#d56d31" stroke="#d56d31" stroke-width="1.51"/><path d="M1048 340l126-262-190 93z" fill="#d56129" stroke="#d56129" stroke-width="1.51"/><path d="M984 171l63-239L883 42z" fill="#c75a25" stroke="#c75a25" stroke-width="1.51"/><path d="M1192 692L977 535l-48 199z" fill="#e07432" stroke="#e07432" stroke-width="1.51"/><path d="M211 263L56 283l135 124z" fill="#c44f20" stroke="#c44f20" stroke-width="1.51"/><path d="M99 78L56 283l155-20z" fill="#c04a1e" stroke="#c04a1e" stroke-width="1.51"/><path d="M99 78l112 185 46-173z" fill="#c1481d" stroke="#c1481d" stroke-width="1.51"/><path d="M565 1120l123-114-168-69z" fill="#dc7a42" stroke="#dc7a42" stroke-width="1.51"/><path d="M56 283L37 443l154-36z" fill="#bf5222" stroke="#bf5222" stroke-width="1.51"/><path d="M771-231l-276 50 61 197z" fill="#b95123" stroke="#b95123" stroke-width="1.51"/><path d="M-75 752l205-13-6-75z" fill="#c9602b" stroke="#c9602b" stroke-width="1.51"/><path d="M124 664l6 75 188 9z" fill="#d1612b" stroke="#d1612b" stroke-width="1.51"/><path d="M1099 835l93-143-263 42z" fill="#e37b39" stroke="#e37b39" stroke-width="1.51"/><path d="M1099 835L929 734l-7 117z" fill="#e37c3c" stroke="#e37c3c" stroke-width="1.51"/><path d="M1212 509l49-149-213-20z" fill="#d76e31" stroke="#d76e31" stroke-width="1.51"/><path d="M1327 362l-66-2-49 149z" fill="#d87237" stroke="#d87237" stroke-width="1.51"/><path d="M1143 21l-96-89-63 239z" fill="#c85d28" stroke="#c85d28" stroke-width="1.51"/><path d="M1261 360l-87-282-126 262z" fill="#d8672d" stroke="#d8672d" stroke-width="1.51"/><path d="M1016 952l-94-101-162 123z" fill="#e28145" stroke="#e28145" stroke-width="1.51"/><path d="M1016 952l83-117-177 16z" fill="#e48345" stroke="#e48345" stroke-width="1.51"/><path d="M92-17l7 95 158 12z" fill="#b6471e" stroke="#b6471e" stroke-width="1.51"/><path d="M1174 78l-31-57-159 150z" fill="#cd5f29" stroke="#cd5f29" stroke-width="1.51"/><path d="M495-181l-127 3 23 111z" fill="#ba4c20" stroke="#ba4c20" stroke-width="1.51"/><path d="M301-61L92-17 257 90z" fill="#b5471e" stroke="#b5471e" stroke-width="1.51"/><path d="M130 739l167 221 21-212z" fill="#d76a34" stroke="#d76a34" stroke-width="1.51"/><path d="M441 945l-49 130 128-138z" fill="#dd7740" stroke="#dd7740" stroke-width="1.51"/><path d="M813-137l-42-94L663 44z" fill="#b95425" stroke="#b95425" stroke-width="1.51"/><path d="M495-181l276-50-403 53z" fill="#bb4f22" stroke="#bb4f22" stroke-width="1.51"/><path d="M1069-171l-298-60 42 94z" fill="#bf5725" stroke="#bf5725" stroke-width="1.51"/><path d="M843 1101l173-149-256 22z" fill="#e18145" stroke="#e18145" stroke-width="1.51"/><path d="M368-178l-91 29 24 88z" fill="#b8491f" stroke="#b8491f" stroke-width="1.51"/><path d="M37 443l-57 68 144 153z" fill="#c15725" stroke="#c15725" stroke-width="1.51"/><path d="M-36 293l16 218 57-68z" fill="#b85224" stroke="#b85224" stroke-width="1.51"/><path d="M-36 293l73 150 19-160z" fill="#bc4f22" stroke="#bc4f22" stroke-width="1.51"/><path d="M1141 868l51-176-93 143z" fill="#e58041" stroke="#e58041" stroke-width="1.51"/><path d="M1141 868l116-190-65 14z" fill="#e47e3d" stroke="#e47e3d" stroke-width="1.51"/><path d="M1192 692l65-14-45-169z" fill="#e27938" stroke="#e27938" stroke-width="1.51"/><path d="M1016 952l125-84-42-33z" fill="#e58648" stroke="#e58648" stroke-width="1.51"/><path d="M-52 197l16 96 92-10z" fill="#ba4c20" stroke="#ba4c20" stroke-width="1.51"/><path d="M1397 167l-62-137-161 48z" fill="#d16934" stroke="#d16934" stroke-width="1.51"/><path d="M1375 399l-48-37-115 147z" fill="#d8753a" stroke="#d8753a" stroke-width="1.51"/><path d="M99 78L-52 197l108 86z" fill="#ba491e" stroke="#ba491e" stroke-width="1.51"/><path d="M277-149L92-17l209-44z" fill="#b5471e" stroke="#b5471e" stroke-width="1.51"/><path d="M1257 678l39-9-84-160z" fill="#e37a3a" stroke="#e37a3a" stroke-width="1.51"/><path d="M1382 723l-86-54-39 9z" fill="#e58141" stroke="#e58141" stroke-width="1.51"/><path d="M297 960l95 115 49-130z" fill="#db753f" stroke="#db753f" stroke-width="1.51"/><path d="M688 1006l155 95-83-127z" fill="#db7e44" stroke="#db7e44" stroke-width="1.51"/><path d="M392 1075l173 45-45-183z" fill="#de7840" stroke="#de7840" stroke-width="1.51"/><path d="M1047-68l22-103-256 34z" fill="#c35a26" stroke="#c35a26" stroke-width="1.51"/><path d="M1259-133l-190-38-22 103z" fill="#c55f2b" stroke="#c55f2b" stroke-width="1.51"/><path d="M1259-133l-212 65 96 89z" fill="#c5602c" stroke="#c5602c" stroke-width="1.51"/><path d="M1335 30l-192-9 31 57z" fill="#ca632e" stroke="#ca632e" stroke-width="1.51"/><path d="M-187 591l73 5-148-120z" fill="#bf5725" stroke="#bf5725" stroke-width="1.51"/><path d="M-29-26l-23 223L99 78z" fill="#b0461e" stroke="#b0461e" stroke-width="1.51"/><path d="M565 1120l278-19-155-95z" fill="#d97c44" stroke="#d97c44" stroke-width="1.51"/><path d="M1016 952l136 50-11-134z" fill="#e6884a" stroke="#e6884a" stroke-width="1.51"/><path d="M1397 167l-223-89 87 282z" fill="#d86a33" stroke="#d86a33" stroke-width="1.51"/><path d="M1296 669l79-270-163 110z" fill="#dd783b" stroke="#dd783b" stroke-width="1.51"/><path d="M-20 511l-94 85 238 68z" fill="#c25925" stroke="#c25925" stroke-width="1.51"/><path d="M130 739L59 928l238 32z" fill="#d36e3b" stroke="#d36e3b" stroke-width="1.51"/><path d="M297 960l-6 167 101-52z" fill="#db733e" stroke="#db733e" stroke-width="1.51"/><path d="M-179 297l159 214-16-218z" fill="#ba5022" stroke="#ba5022" stroke-width="1.51"/><path d="M-35 853l94 75 71-189z" fill="#cb6a37" stroke="#cb6a37" stroke-width="1.51"/><path d="M1374 914l8-191-125-45z" fill="#e78749" stroke="#e78749" stroke-width="1.51"/><path d="M987 1125l165-123-136-50z" fill="#e58649" stroke="#e58649" stroke-width="1.51"/><path d="M1397 167l-136 193 66 2z" fill="#dc7239" stroke="#dc7239" stroke-width="1.51"/><path d="M-114 596l39 156 199-88z" fill="#c45d29" stroke="#c45d29" stroke-width="1.51"/><path d="M1375 399l22-232-70 195z" fill="#dc743c" stroke="#dc743c" stroke-width="1.51"/><path d="M92-17l-121-9L99 78z" fill="#ac461f" stroke="#ac461f" stroke-width="1.51"/><path d="M-52 197l-127 100 143-4z" fill="#ba4c20" stroke="#ba4c20" stroke-width="1.51"/><path d="M61-175L-29-26l121 9z" fill="#aa461f" stroke="#aa461f" stroke-width="1.51"/><path d="M843 1101l144 24 29-173z" fill="#e48245" stroke="#e48245" stroke-width="1.51"/><path d="M565 1120l422 5-144-24z" fill="#dc7f45" stroke="#dc7f45" stroke-width="1.51"/><path d="M565 1120l-274 7 696-2z" fill="#db7a42" stroke="#db7a42" stroke-width="1.51"/><path d="M392 1075l-101 52 274-7z" fill="#dc763f" stroke="#dc763f" stroke-width="1.51"/><path d="M71 1128l220-1 6-167z" fill="#d8713d" stroke="#d8713d" stroke-width="1.51"/><path d="M1296 669l190 1-111-271z" fill="#e27f42" stroke="#e27f42" stroke-width="1.51"/><path d="M1375 399l129-209-107-23z" fill="#dc743e" stroke="#dc743e" stroke-width="1.51"/><path d="M1374 914l-117-236-116 190z" fill="#e78749" stroke="#e78749" stroke-width="1.51"/><path d="M59 928l12 200 226-168z" fill="#d2703d" stroke="#d2703d" stroke-width="1.51"/><path d="M-75 752l40 101 165-114z" fill="#c76431" stroke="#c76431" stroke-width="1.51"/><path d="M277-149L61-175 92-17z" fill="#b0461e" stroke="#b0461e" stroke-width="1.51"/><path d="M368-178l-307 3 216 26z" fill="#b6471e" stroke="#b6471e" stroke-width="1.51"/><path d="M771-231L61-175l307-3z" fill="#ba4b20" stroke="#ba4b20" stroke-width="1.51"/><path d="M1335 30l-76-163-116 154z" fill="#c66431" stroke="#c66431" stroke-width="1.51"/><path d="M1069-171l320-56-618-4z" fill="#c45d29" stroke="#c45d29" stroke-width="1.51"/><path d="M-186 86l7 211 127-100z" fill="#b8491f" stroke="#b8491f" stroke-width="1.51"/><path d="M-75 752l-83 204 123-103z" fill="#c86a39" stroke="#c86a39" stroke-width="1.51"/><path d="M-114 596l-73 93 112 63z" fill="#c45d2a" stroke="#c45d2a" stroke-width="1.51"/><path d="M-262 476l148 120 94-85z" fill="#bd5625" stroke="#bd5625" stroke-width="1.51"/><path d="M-187 591v98l73-93z" fill="#c35b27" stroke="#c35b27" stroke-width="1.51"/><path d="M-29-26L-186 86l134 111z" fill="#b0461e" stroke="#b0461e" stroke-width="1.51"/><path d="M61-175l-139 68 49 81z" fill="#a8451f" stroke="#a8451f" stroke-width="1.51"/><path d="M-179 297l-83 179 242 35z" fill="#b85224" stroke="#b85224" stroke-width="1.51"/><path d="M-78-107L-186 86-29-26z" fill="#a8451f" stroke="#a8451f" stroke-width="1.51"/><path d="M1382 723l104-53-190-1z" fill="#e68547" stroke="#e68547" stroke-width="1.51"/><path d="M1516 725l-30-55-104 53z" fill="#e6884b" stroke="#e6884b" stroke-width="1.51"/><path d="M1557 234l-53-44-129 209z" fill="#dd7640" stroke="#dd7640" stroke-width="1.51"/><path d="M1397 167l87-258-149 121z" fill="#cc6d3b" stroke="#cc6d3b" stroke-width="1.51"/><path d="M1335 30l149-121-225-42z" fill="#c86a38" stroke="#c86a38" stroke-width="1.51"/><path d="M1152 1002l222-88-233-46z" fill="#e88c4f" stroke="#e88c4f" stroke-width="1.51"/><path d="M1406 1027l-32-113-222 88z" fill="#e99155" stroke="#e99155" stroke-width="1.51"/><path d="M-187 591l-75-115 75 213z" fill="#c25925" stroke="#c25925" stroke-width="1.51"/><path d="M-252 15l-10 461 83-179z" fill="#ba4c20" stroke="#ba4c20" stroke-width="1.51"/><path d="M-96 1091l167 37-12-200z" fill="#ca6e3e" stroke="#ca6e3e" stroke-width="1.51"/><path d="M291 1127l1226 20-530-22z" fill="#e38245" stroke="#e38245" stroke-width="1.51"/><path d="M-158 956l217-28-94-75z" fill="#c96e3e" stroke="#c96e3e" stroke-width="1.51"/><path d="M1486 670l78-280-189 9z" fill="#dc7e45" stroke="#dc7e45" stroke-width="1.51"/><path d="M1704 606l2-167-142-49z" fill="#db7e44" stroke="#db7e44" stroke-width="1.51"/><path d="M1452 879l64-154-134-2z" fill="#e88d51" stroke="#e88d51" stroke-width="1.51"/><path d="M1564 390l-7-156-182 165z" fill="#dd7942" stroke="#dd7942" stroke-width="1.51"/><path d="M1504 190l-20-281-87 258z" fill="#d2703d" stroke="#d2703d" stroke-width="1.51"/><path d="M1374 914l78-35-70-156z" fill="#e99055" stroke="#e99055" stroke-width="1.51"/><path d="M1406 1027l46-148-78 35z" fill="#ea965c" stroke="#ea965c" stroke-width="1.51"/><path d="M-237 1028l79-72-29-267z" fill="#c96d3d" stroke="#c96d3d" stroke-width="1.51"/><path d="M-187 689l29 267 83-204z" fill="#c76533" stroke="#c76533" stroke-width="1.51"/><path d="M-186 86l-66-71 73 282z" fill="#b5471e" stroke="#b5471e" stroke-width="1.51"/><path d="M-78-107L-252 15l66 71z" fill="#a8451f" stroke="#a8451f" stroke-width="1.51"/><path d="M1645 95L1484-91l20 281z" fill="#d06f3d" stroke="#d06f3d" stroke-width="1.51"/><path d="M1259-133l130-94-320 56z" fill="#c66330" stroke="#c66330" stroke-width="1.51"/><path d="M1484-91l-95-136-130 94z" fill="#c96b39" stroke="#c96b39" stroke-width="1.51"/><path d="M1704 606l-218 64 30 55z" fill="#e68649" stroke="#e68649" stroke-width="1.51"/><path d="M1517 1147l-111-120-254-25z" fill="#e99359" stroke="#e99359" stroke-width="1.51"/><path d="M-158 956l62 135L59 928zM1484-91l1-88-96-48zm135-32l-134-56-1 88z" fill="#c96e3e" stroke="#c96e3e" stroke-width="1.51"/><path d="M1557 234l88-139-141 95z" fill="#da723d" stroke="#da723d" stroke-width="1.51"/><path d="M1564 390l120-74-127-82z" fill="#dd7841" stroke="#dd7841" stroke-width="1.51"/><path d="M1706 439l-22-123-120 74z" fill="#db7a42" stroke="#db7a42" stroke-width="1.51"/><path d="M1564 390l-78 280 218-64z" fill="#e18145" stroke="#e18145" stroke-width="1.51"/><path d="M1684 316l-39-221-88 139z" fill="#db743e" stroke="#db743e" stroke-width="1.51"/><path d="M-78-107l-191-25 17 147z" fill="#a8451f" stroke="#a8451f" stroke-width="1.51"/><path d="M-252 15l-17-147 7 608z" fill="#b3461e" stroke="#b3461e" stroke-width="1.51"/><path d="M61-175l-330 43 191 25z" fill="#a8451f" stroke="#a8451f" stroke-width="1.51"/><path d="M1704 606l-188 119 207 53z" fill="#e6884b" stroke="#e6884b" stroke-width="1.51"/><path d="M1689-3l-205-88 161 186zM-158 956l-79 72 141 63z" fill="#c96e3e" stroke="#c96e3e" stroke-width="1.51"/><path d="M-262 476l25 552 50-339z" fill="#c5602d" stroke="#c5602d" stroke-width="1.51"/><path d="M1622 927l-106-202-64 154z" fill="#e99358" stroke="#e99358" stroke-width="1.51"/><path d="M1406 1027l216-100-170-48z" fill="#ea975e" stroke="#ea975e" stroke-width="1.51"/><path d="M1485-179l393 61-489-109zM1689-3l-70-120-135 32z" fill="#c96e3e" stroke="#c96e3e" stroke-width="1.51"/><path d="M1689-3l-44 98 165 93z" fill="#d3703d" stroke="#d3703d" stroke-width="1.51"/><path d="M1770 275L1645 95l39 221z" fill="#db743f" stroke="#db743f" stroke-width="1.51"/><path d="M1878 377l-108-102-64 164z" fill="#dc7a42" stroke="#dc7a42" stroke-width="1.51"/><path d="M1706 439l64-164-86 41z" fill="#dc7941" stroke="#dc7941" stroke-width="1.51"/><path d="M1704 606l96 33-94-200z" fill="#e28145" stroke="#e28145" stroke-width="1.51"/><path d="M1622 927l101-149-207-53z" fill="#e99054" stroke="#e99054" stroke-width="1.51"/><path d="M1762 940l-18-175-21 13z" fill="#e99156" stroke="#e99156" stroke-width="1.51"/><path d="M1406 1027l111 120 105-220z" fill="#ea975e" stroke="#ea975e" stroke-width="1.51"/><path d="M987 1125l530 22-365-145z" fill="#e88c4f" stroke="#e88c4f" stroke-width="1.51"/><path d="M71 1128l1446 19-1226-20z" fill="#db7b43" stroke="#db7b43" stroke-width="1.51"/><path d="M1723 778l21-13-40-159z" fill="#e7894c" stroke="#e7894c" stroke-width="1.51"/><path d="M1762 940l-39-162-101 149z" fill="#ea965c" stroke="#ea965c" stroke-width="1.51"/><path d="M1744 765l56-126-96-33z" fill="#e68749" stroke="#e68749" stroke-width="1.51"/><path d="M1770 275l40-87-165-93z" fill="#da733d" stroke="#da733d" stroke-width="1.51"/><path d="M1689-3l144-47-214-73z" fill="#c96e3e" stroke="#c96e3e" stroke-width="1.51"/><path d="M1878 377l-68-189-40 87z" fill="#dd7740" stroke="#dd7740" stroke-width="1.51"/><path d="M1517 1147l99-13 6-207z" fill="#ea975e" stroke="#ea975e" stroke-width="1.51"/><path d="M1744 765l126 263-70-389z" fill="#e99054" stroke="#e99054" stroke-width="1.51"/><path d="M1800 639l78-262-172 62z" fill="#db7e45" stroke="#db7e45" stroke-width="1.51"/><path d="M1800 639l70 389 8-651z" fill="#e6874a" stroke="#e6874a" stroke-width="1.51"/><path d="M1616 1134l146-194-140-13z" fill="#ea975e" stroke="#ea975e" stroke-width="1.51"/><path d="M1878-118l-45 68-23 238z" fill="#ca6e3e" stroke="#ca6e3e" stroke-width="1.51"/><path d="M1810 188l23-238-144 47z" fill="#ce6f3d" stroke="#ce6f3d" stroke-width="1.51"/><path d="M1619-123l259 5-393-61z" fill="#c96e3e" stroke="#c96e3e" stroke-width="1.51"/><path d="M1878 377v-495l-68 306z" fill="#d9713d" stroke="#d9713d" stroke-width="1.51"/><path d="M1833-50l45-68-259-5z" fill="#c96e3e" stroke="#c96e3e" stroke-width="1.51"/><path d="M1616 1134l254-106-108-88z" fill="#ea975e" stroke="#ea975e" stroke-width="1.51"/><path d="M1762 940l108 88-126-263z" fill="#ea975e" stroke="#ea975e" stroke-width="1.51"/></svg>