<?xml version="1.0" encoding="utf-8"?>
<!-- Generator: Adobe Illustrator 15.1.0, SVG Export Plug-In . SVG Version: 6.00 Build 0)  -->
<!DOCTYPE svg PUBLIC "-//W3C//DTD SVG 1.1//EN" "http://www.w3.org/Graphics/SVG/1.1/DTD/svg11.dtd">
<svg version="1.1" id="Layer_1" xmlns="http://www.w3.org/2000/svg" xmlns:xlink="http://www.w3.org/1999/xlink" x="0px" y="0px"
	 width="97.38px" height="92.75px" viewBox="0 0 97.38 92.75" enable-background="new 0 0 97.38 92.75" xml:space="preserve">
<g>
	<path fill="none" stroke="#FFFFFF" stroke-width="2" stroke-miterlimit="10" d="M95.938,46.373c0,24.852-21.153,45-47.247,45
		s-47.248-20.148-47.248-45c0-24.85,21.154-44.996,47.248-44.996S95.938,21.523,95.938,46.373z"/>
	<g>
		<path fill="#FFFFFF" d="M48.594,21.976c-0.076,0.02-0.134,0.038-0.173,0.057l-11.78,6.805h-0.02
			c-0.038,0.019-0.076,0.057-0.116,0.076c-0.018,0.019-0.038,0.039-0.038,0.058c-0.019,0.019-0.019,0.019-0.039,0.038
			c-0.039,0.058-0.077,0.135-0.077,0.193c-0.019,0.039-0.019,0.097-0.019,0.134v13.322l-11.511,6.65h-0.019
			c-0.039,0.02-0.077,0.041-0.116,0.078c-0.019,0.018-0.019,0.039-0.038,0.057c-0.019,0-0.019,0.02-0.039,0.02
			c-0.039,0.078-0.058,0.135-0.077,0.213c-0.019,0.037-0.019,0.076-0.019,0.113V63.42c0,0.191,0.116,0.385,0.27,0.48l11.722,6.746
			c0.02,0.02,0.02,0.02,0.04,0.039l0.019,0.018c0.019,0,0.019,0,0.019,0h0.019c0.019,0.02,0.019,0.02,0.039,0.02c0,0,0,0,0.019,0
			c0,0.02,0.02,0.02,0.02,0.02c0.019,0,0.019,0.02,0.019,0.02c0.02,0,0.039,0,0.039,0h0.019c0,0,0.02,0.02,0.039,0.02
			c0,0,0,0,0.02,0h0.019c0.019,0,0.019,0,0.019,0c0.096,0,0.212-0.02,0.289-0.078c0.019,0,0.057-0.018,0.078-0.037l11.473-6.611
			l11.434,6.592c0.019,0.02,0.039,0.02,0.058,0.039l0.019,0.018c0,0,0,0,0.02,0h0.02c0,0.02,0.019,0.02,0.019,0.02
			c0.019,0,0.019,0,0.019,0c0.02,0.02,0.02,0.02,0.039,0.02l0.02,0.02c0,0,0.019,0,0.038,0l0,0c0.02,0,0.038,0.02,0.038,0.02
			c0.02,0,0.02,0,0.02,0c0.02,0,0.02,0,0.039,0c0,0,0,0,0.02,0c0.096,0,0.191-0.02,0.288-0.078c0.02,0,0.039-0.018,0.058-0.037
			l11.761-6.768c0.155-0.096,0.271-0.289,0.271-0.48V49.868c0-0.037,0-0.057,0-0.076c0,0,0-0.02,0-0.039c0,0,0,0,0-0.02v-0.02
			c-0.02-0.076-0.039-0.152-0.098-0.23c0,0,0-0.018-0.018-0.037l0,0c-0.02-0.02-0.02-0.02-0.02-0.02
			c-0.039-0.059-0.096-0.096-0.135-0.115L61.048,42.66V29.396c0-0.02,0-0.039,0-0.057c0-0.02,0-0.04,0-0.04V29.28
			c0-0.019,0-0.019,0-0.038c-0.019-0.078-0.039-0.155-0.097-0.211c0-0.02,0-0.02,0-0.04c-0.019,0-0.019-0.019-0.019-0.019
			c-0.02,0-0.02-0.019-0.02-0.019c-0.039-0.039-0.096-0.077-0.135-0.115L48.96,22.035C48.844,21.976,48.709,21.956,48.594,21.976
			L48.594,21.976z M48.69,23.129l10.721,6.189l-8.045,4.652l-2.676,1.558l-10.721-6.191L48.69,23.129L48.69,23.129z M37.411,30.26
			l10.74,6.209v12.359l-4.85-2.786l-5.89-3.402V30.26L37.411,30.26z M59.97,30.26v12.38L49.229,48.85V36.47L59.97,30.26L59.97,30.26
			z M36.872,43.581l5.408,3.134l5.314,3.057l-8.047,4.652l-2.674,1.555l-2.676-1.555l-8.046-4.652L36.872,43.581L36.872,43.581z
			 M60.509,43.581l10.721,6.191l-8.045,4.652l-2.676,1.555l-2.695-1.555l-8.046-4.652l6.68-3.844L60.509,43.581L60.509,43.581z
			 M25.592,50.733l10.742,6.189v12.379l-10.742-6.209V50.733L25.592,50.733z M48.151,50.733v12.359l-10.74,6.209V56.922
			L48.151,50.733L48.151,50.733z M49.229,50.733l10.741,6.189v12.379l-10.741-6.209V50.733L49.229,50.733z M71.769,50.733v12.359
			l-10.721,6.209V56.922L71.769,50.733L71.769,50.733z"/>
	</g>
</g>
</svg>
