<?xml version="1.0" encoding="utf-8"?>
<!-- Generator: Adobe Illustrator 15.1.0, SVG Export Plug-In . SVG Version: 6.00 Build 0)  -->
<!DOCTYPE svg PUBLIC "-//W3C//DTD SVG 1.1//EN" "http://www.w3.org/Graphics/SVG/1.1/DTD/svg11.dtd">
<svg version="1.1" id="Layer_1" xmlns="http://www.w3.org/2000/svg" xmlns:xlink="http://www.w3.org/1999/xlink" x="0px" y="0px"
	 width="97.38px" height="92.75px" viewBox="0 0 97.38 92.75" enable-background="new 0 0 97.38 92.75" xml:space="preserve">
<g>
	<path fill="none" stroke="#FFFFFF" stroke-width="2" stroke-miterlimit="10" d="M96.401,45.894c0,24.852-21.154,45-47.246,45
		c-26.094,0-47.248-20.148-47.248-45c0-24.85,21.154-44.996,47.248-44.996C75.247,0.898,96.401,21.044,96.401,45.894z"/>
	<g transform="translate(0.000000,1200.000000) scale(0.100000,-0.100000)">
		<path fill="#FFFCFA" d="M357.065,11733.305c-2.822-0.898-6.621-4.961-7.373-7.959c-0.469-1.816-0.654-13.408-0.654-41.533v-39.082
			l-64.346-0.107l-64.355-0.146l-2.305-1.611c-1.436-1.016-2.881-2.676-3.799-4.482l-1.494-2.832v-126.704
			c0-94.609,0.166-127.227,0.645-128.77c0.801-2.832,3.691-6.055,6.416-7.227c2.188-0.957,5.508-1.016,80.762-1.172l78.418-0.098
			v-7.227c0-8.164,0.82-10.957,3.975-13.359c3.955-2.988,3.037-2.93,37.041-2.93c21.328,0,32.129,0.195,33.555,0.586
			c2.832,0.781,6.904,4.863,7.695,7.695c0.439,1.504,0.586,17.539,0.586,53.359v51.152h23.799h23.789v-32.617v-32.617l-11.865-0.098
			l-11.924-0.156l-0.156-5.684l-0.146-5.645l18.057-0.332c23.232-0.488,77.539-0.488,100.801,0l18.066,0.332l-0.146,5.645
			l-0.166,5.684l-11.865,0.156l-11.914,0.098v32.617v32.617h80.85c57.48,0,81.484,0.156,82.979,0.586
			c2.822,0.781,6.885,4.863,7.705,7.695c0.859,3.047,0.859,253.54,0,256.577c-0.82,2.832-4.873,6.904-7.705,7.695
			C758.931,11734.281,359.751,11734.174,357.065,11733.305z M758.501,11597.445v-124.849h-148.33h-148.34v3.809
			c0,2.129-0.254,4.746-0.586,5.879c-0.84,2.676-3.262,5.605-5.986,7.051c-2.188,1.113-2.773,1.172-21.582,1.348l-19.414,0.156
			v72.446c0,78.457,0.156,73.926-2.93,77.598c-3.057,3.633-2.422,3.535-27.539,3.848l-22.725,0.273l-0.146,38.652l-0.107,38.594
			h198.838h198.848V11597.445L758.501,11597.445z M402.505,11561.918v-70.962l-7.324-0.273c-8.076-0.273-10.166-0.898-13.096-4.023
			c-3.213-3.359-3.105-1.758-3.105-45.312v-39.824h-77.236h-77.236v115.723v115.728h88.994h89.004V11561.918z M450.083,11425.038
			v-53.457h-29.678h-29.648v53.457v53.438h29.648h29.678V11425.038z M586.382,11428.241v-32.617h-32.607h-32.598v32.617v32.617
			h32.598h32.607V11428.241z M316.821,11390.077c1.172-1.016,1.494-1.699,1.494-3.535c0-5.332-7.051-6.719-9.141-1.816
			c-0.645,1.562-0.645,2.09,0,3.652c0.43,0.996,1.172,2.07,1.758,2.383C312.593,11391.737,315.21,11391.464,316.821,11390.077z
			 M423.843,11365.976c3.516-3.477-0.381-9.316-5.146-7.715c-2.822,0.918-4.102,4.18-2.617,6.855
			C417.681,11368.046,421.372,11368.417,423.843,11365.976z"/>
	</g>
</g>
</svg>
