<svg xmlns="http://www.w3.org/2000/svg" width="1440" height="900"><path d="M725,432L699,341L555,379Z" fill="#ca5e28" stroke="#ca5e28" stroke-width="1.51"/><path d="M493,567L738,578L725,432Z" fill="#ce632a" stroke="#ce632a" stroke-width="1.51"/><path d="M555,379L493,567L725,432Z" fill="#ca6029" stroke="#ca6029" stroke-width="1.51"/><path d="M490,241L437,382L555,379Z" fill="#cf5923" stroke="#cf5923" stroke-width="1.51"/><path d="M454,553L493,567L555,379Z" fill="#cf5f27" stroke="#cf5f27" stroke-width="1.51"/><path d="M699,341L490,241L555,379Z" fill="#ce5b25" stroke="#ce5b25" stroke-width="1.51"/><path d="M437,382L454,553L555,379Z" fill="#cc5c26" stroke="#cc5c26" stroke-width="1.51"/><path d="M654,75L503,106L490,241Z" fill="#c85120" stroke="#c85120" stroke-width="1.51"/><path d="M940,337L817,200L699,341Z" fill="#d05f26" stroke="#d05f26" stroke-width="1.51"/><path d="M940,337L699,341L725,432Z" fill="#cd6128" stroke="#cd6128" stroke-width="1.51"/><path d="M738,578L930,481L725,432Z" fill="#ce662b" stroke="#ce662b" stroke-width="1.51"/><path d="M930,481L940,337L725,432Z" fill="#cf642a" stroke="#cf642a" stroke-width="1.51"/><path d="M490,241L338,268L437,382Z" fill="#cf5521" stroke="#cf5521" stroke-width="1.51"/><path d="M503,106L425,163L490,241Z" fill="#cb511f" stroke="#cb511f" stroke-width="1.51"/><path d="M738,578L880,629L930,481Z" fill="#d5692c" stroke="#d5692c" stroke-width="1.51"/><path d="M690,796L880,629L738,578Z" fill="#d66c2f" stroke="#d66c2f" stroke-width="1.51"/><path d="M654,75L490,241L699,341Z" fill="#cb5623" stroke="#cb5623" stroke-width="1.51"/><path d="M437,382L285,591L454,553Z" fill="#ce5d25" stroke="#ce5d25" stroke-width="1.51"/><path d="M425,163L338,268L490,241Z" fill="#cc511f" stroke="#cc511f" stroke-width="1.51"/><path d="M817,200L654,75L699,341Z" fill="#c85825" stroke="#c85825" stroke-width="1.51"/><path d="M930,481L1048,340L940,337Z" fill="#d4662a" stroke="#d4662a" stroke-width="1.51"/><path d="M880,629L977,535L930,481Z" fill="#d86b2c" stroke="#d86b2c" stroke-width="1.51"/><path d="M493,567L690,796L738,578Z" fill="#d5692c" stroke="#d5692c" stroke-width="1.51"/><path d="M454,553L472,729L493,567Z" fill="#d86428" stroke="#d86428" stroke-width="1.51"/><path d="M285,591L472,729L454,553Z" fill="#d66227" stroke="#d66227" stroke-width="1.51"/><path d="M654,75L556,16L503,106Z" fill="#c15121" stroke="#c15121" stroke-width="1.51"/><path d="M817,200L663,44L654,75Z" fill="#c25524" stroke="#c25524" stroke-width="1.51"/><path d="M472,729L690,796L493,567Z" fill="#d8692e" stroke="#d8692e" stroke-width="1.51"/><path d="M191,407L285,591L437,382Z" fill="#c95824" stroke="#c95824" stroke-width="1.51"/><path d="M391,-67L257,90L425,163Z" fill="#bf4a1f" stroke="#bf4a1f" stroke-width="1.51"/><path d="M663,44L556,16L654,75Z" fill="#be5222" stroke="#be5222" stroke-width="1.51"/><path d="M940,337L984,171L817,200Z" fill="#d35f25" stroke="#d35f25" stroke-width="1.51"/><path d="M817,200L883,42L663,44Z" fill="#c45624" stroke="#c45624" stroke-width="1.51"/><path d="M1077,513L1048,340L930,481Z" fill="#d36a2d" stroke="#d36a2d" stroke-width="1.51"/><path d="M1048,340L984,171L940,337Z" fill="#d76327" stroke="#d76327" stroke-width="1.51"/><path d="M472,729L618,828L690,796Z" fill="#d97035" stroke="#d97035" stroke-width="1.51"/><path d="M880,629L929,734L977,535Z" fill="#dd6f2e" stroke="#dd6f2e" stroke-width="1.51"/><path d="M977,535L1077,513L930,481Z" fill="#d76b2d" stroke="#d76b2d" stroke-width="1.51"/><path d="M690,796L929,734L880,629Z" fill="#db7133" stroke="#db7133" stroke-width="1.51"/><path d="M922,851L929,734L690,796Z" fill="#dd773a" stroke="#dd773a" stroke-width="1.51"/><path d="M984,171L883,42L817,200Z" fill="#ce5a24" stroke="#ce5a24" stroke-width="1.51"/><path d="M663,44L771,-231L556,16Z" fill="#b85224" stroke="#b85224" stroke-width="1.51"/><path d="M338,268L191,407L437,382Z" fill="#cb5421" stroke="#cb5421" stroke-width="1.51"/><path d="M211,263L191,407L338,268Z" fill="#ca501f" stroke="#ca501f" stroke-width="1.51"/><path d="M211,263L338,268L257,90Z" fill="#c84c1d" stroke="#c84c1d" stroke-width="1.51"/><path d="M1192,692L1077,513L977,535Z" fill="#de7131" stroke="#de7131" stroke-width="1.51"/><path d="M257,90L338,268L425,163Z" fill="#c94c1d" stroke="#c94c1d" stroke-width="1.51"/><path d="M472,729L520,937L618,828Z" fill="#db733a" stroke="#db733a" stroke-width="1.51"/><path d="M285,591L318,748L472,729Z" fill="#d6642a" stroke="#d6642a" stroke-width="1.51"/><path d="M124,664L318,748L285,591Z" fill="#d35f28" stroke="#d35f28" stroke-width="1.51"/><path d="M391,-67L425,163L503,106Z" fill="#c14d20" stroke="#c14d20" stroke-width="1.51"/><path d="M1192,692L1212,509L1077,513Z" fill="#df7433" stroke="#df7433" stroke-width="1.51"/><path d="M760,974L922,851L690,796Z" fill="#dc7d42" stroke="#dc7d42" stroke-width="1.51"/><path d="M495,-181L391,-67L556,16Z" fill="#bc4e21" stroke="#bc4e21" stroke-width="1.51"/><path d="M556,16L391,-67L503,106Z" fill="#be4e21" stroke="#be4e21" stroke-width="1.51"/><path d="M618,828L760,974L690,796Z" fill="#d97940" stroke="#d97940" stroke-width="1.51"/><path d="M441,945L520,937L472,729Z" fill="#dd753d" stroke="#dd753d" stroke-width="1.51"/><path d="M883,42L813,-137L663,44Z" fill="#ba5525" stroke="#ba5525" stroke-width="1.51"/><path d="M1047,-68L813,-137L883,42Z" fill="#c15825" stroke="#c15825" stroke-width="1.51"/><path d="M318,748L441,945L472,729Z" fill="#da6e35" stroke="#da6e35" stroke-width="1.51"/><path d="M191,407L124,664L285,591Z" fill="#cc5924" stroke="#cc5924" stroke-width="1.51"/><path d="M318,748L297,960L441,945Z" fill="#da723d" stroke="#da723d" stroke-width="1.51"/><path d="M37,443L124,664L191,407Z" fill="#c35724" stroke="#c35724" stroke-width="1.51"/><path d="M391,-67L301,-61L257,90Z" fill="#b8491f" stroke="#b8491f" stroke-width="1.51"/><path d="M368,-178L301,-61L391,-67Z" fill="#b94a1f" stroke="#b94a1f" stroke-width="1.51"/><path d="M688,1006L618,828L520,937Z" fill="#db7a42" stroke="#db7a42" stroke-width="1.51"/><path d="M688,1006L760,974L618,828Z" fill="#d97c44" stroke="#d97c44" stroke-width="1.51"/><path d="M1077,513L1212,509L1048,340Z" fill="#d56d31" stroke="#d56d31" stroke-width="1.51"/><path d="M1048,340L1174,78L984,171Z" fill="#d56129" stroke="#d56129" stroke-width="1.51"/><path d="M984,171L1047,-68L883,42Z" fill="#c75a25" stroke="#c75a25" stroke-width="1.51"/><path d="M1192,692L977,535L929,734Z" fill="#e07432" stroke="#e07432" stroke-width="1.51"/><path d="M211,263L56,283L191,407Z" fill="#c44f20" stroke="#c44f20" stroke-width="1.51"/><path d="M99,78L56,283L211,263Z" fill="#c04a1e" stroke="#c04a1e" stroke-width="1.51"/><path d="M99,78L211,263L257,90Z" fill="#c1481d" stroke="#c1481d" stroke-width="1.51"/><path d="M565,1120L688,1006L520,937Z" fill="#dc7a42" stroke="#dc7a42" stroke-width="1.51"/><path d="M56,283L37,443L191,407Z" fill="#bf5222" stroke="#bf5222" stroke-width="1.51"/><path d="M771,-231L495,-181L556,16Z" fill="#b95123" stroke="#b95123" stroke-width="1.51"/><path d="M-75,752L130,739L124,664Z" fill="#c9602b" stroke="#c9602b" stroke-width="1.51"/><path d="M124,664L130,739L318,748Z" fill="#d1612b" stroke="#d1612b" stroke-width="1.51"/><path d="M1099,835L1192,692L929,734Z" fill="#e37b39" stroke="#e37b39" stroke-width="1.51"/><path d="M1099,835L929,734L922,851Z" fill="#e37c3c" stroke="#e37c3c" stroke-width="1.51"/><path d="M1212,509L1261,360L1048,340Z" fill="#d76e31" stroke="#d76e31" stroke-width="1.51"/><path d="M1327,362L1261,360L1212,509Z" fill="#d87237" stroke="#d87237" stroke-width="1.51"/><path d="M1143,21L1047,-68L984,171Z" fill="#c85d28" stroke="#c85d28" stroke-width="1.51"/><path d="M1261,360L1174,78L1048,340Z" fill="#d8672d" stroke="#d8672d" stroke-width="1.51"/><path d="M1016,952L922,851L760,974Z" fill="#e28145" stroke="#e28145" stroke-width="1.51"/><path d="M1016,952L1099,835L922,851Z" fill="#e48345" stroke="#e48345" stroke-width="1.51"/><path d="M92,-17L99,78L257,90Z" fill="#b6471e" stroke="#b6471e" stroke-width="1.51"/><path d="M1174,78L1143,21L984,171Z" fill="#cd5f29" stroke="#cd5f29" stroke-width="1.51"/><path d="M495,-181L368,-178L391,-67Z" fill="#ba4c20" stroke="#ba4c20" stroke-width="1.51"/><path d="M301,-61L92,-17L257,90Z" fill="#b5471e" stroke="#b5471e" stroke-width="1.51"/><path d="M130,739L297,960L318,748Z" fill="#d76a34" stroke="#d76a34" stroke-width="1.51"/><path d="M441,945L392,1075L520,937Z" fill="#dd7740" stroke="#dd7740" stroke-width="1.51"/><path d="M813,-137L771,-231L663,44Z" fill="#b95425" stroke="#b95425" stroke-width="1.51"/><path d="M495,-181L771,-231L368,-178Z" fill="#bb4f22" stroke="#bb4f22" stroke-width="1.51"/><path d="M1069,-171L771,-231L813,-137Z" fill="#bf5725" stroke="#bf5725" stroke-width="1.51"/><path d="M843,1101L1016,952L760,974Z" fill="#e18145" stroke="#e18145" stroke-width="1.51"/><path d="M368,-178L277,-149L301,-61Z" fill="#b8491f" stroke="#b8491f" stroke-width="1.51"/><path d="M37,443L-20,511L124,664Z" fill="#c15725" stroke="#c15725" stroke-width="1.51"/><path d="M-36,293L-20,511L37,443Z" fill="#b85224" stroke="#b85224" stroke-width="1.51"/><path d="M-36,293L37,443L56,283Z" fill="#bc4f22" stroke="#bc4f22" stroke-width="1.51"/><path d="M1141,868L1192,692L1099,835Z" fill="#e58041" stroke="#e58041" stroke-width="1.51"/><path d="M1141,868L1257,678L1192,692Z" fill="#e47e3d" stroke="#e47e3d" stroke-width="1.51"/><path d="M1192,692L1257,678L1212,509Z" fill="#e27938" stroke="#e27938" stroke-width="1.51"/><path d="M1016,952L1141,868L1099,835Z" fill="#e58648" stroke="#e58648" stroke-width="1.51"/><path d="M-52,197L-36,293L56,283Z" fill="#ba4c20" stroke="#ba4c20" stroke-width="1.51"/><path d="M1397,167L1335,30L1174,78Z" fill="#d16934" stroke="#d16934" stroke-width="1.51"/><path d="M1375,399L1327,362L1212,509Z" fill="#d8753a" stroke="#d8753a" stroke-width="1.51"/><path d="M99,78L-52,197L56,283Z" fill="#ba491e" stroke="#ba491e" stroke-width="1.51"/><path d="M277,-149L92,-17L301,-61Z" fill="#b5471e" stroke="#b5471e" stroke-width="1.51"/><path d="M1257,678L1296,669L1212,509Z" fill="#e37a3a" stroke="#e37a3a" stroke-width="1.51"/><path d="M1382,723L1296,669L1257,678Z" fill="#e58141" stroke="#e58141" stroke-width="1.51"/><path d="M297,960L392,1075L441,945Z" fill="#db753f" stroke="#db753f" stroke-width="1.51"/><path d="M688,1006L843,1101L760,974Z" fill="#db7e44" stroke="#db7e44" stroke-width="1.51"/><path d="M392,1075L565,1120L520,937Z" fill="#de7840" stroke="#de7840" stroke-width="1.51"/><path d="M1047,-68L1069,-171L813,-137Z" fill="#c35a26" stroke="#c35a26" stroke-width="1.51"/><path d="M1259,-133L1069,-171L1047,-68Z" fill="#c55f2b" stroke="#c55f2b" stroke-width="1.51"/><path d="M1259,-133L1047,-68L1143,21Z" fill="#c5602c" stroke="#c5602c" stroke-width="1.51"/><path d="M1335,30L1143,21L1174,78Z" fill="#ca632e" stroke="#ca632e" stroke-width="1.51"/><path d="M-187,591L-114,596L-262,476Z" fill="#bf5725" stroke="#bf5725" stroke-width="1.51"/><path d="M-29,-26L-52,197L99,78Z" fill="#b0461e" stroke="#b0461e" stroke-width="1.51"/><path d="M565,1120L843,1101L688,1006Z" fill="#d97c44" stroke="#d97c44" stroke-width="1.51"/><path d="M1016,952L1152,1002L1141,868Z" fill="#e6884a" stroke="#e6884a" stroke-width="1.51"/><path d="M1397,167L1174,78L1261,360Z" fill="#d86a33" stroke="#d86a33" stroke-width="1.51"/><path d="M1296,669L1375,399L1212,509Z" fill="#dd783b" stroke="#dd783b" stroke-width="1.51"/><path d="M-20,511L-114,596L124,664Z" fill="#c25925" stroke="#c25925" stroke-width="1.51"/><path d="M130,739L59,928L297,960Z" fill="#d36e3b" stroke="#d36e3b" stroke-width="1.51"/><path d="M297,960L291,1127L392,1075Z" fill="#db733e" stroke="#db733e" stroke-width="1.51"/><path d="M-179,297L-20,511L-36,293Z" fill="#ba5022" stroke="#ba5022" stroke-width="1.51"/><path d="M-35,853L59,928L130,739Z" fill="#cb6a37" stroke="#cb6a37" stroke-width="1.51"/><path d="M1374,914L1382,723L1257,678Z" fill="#e78749" stroke="#e78749" stroke-width="1.51"/><path d="M987,1125L1152,1002L1016,952Z" fill="#e58649" stroke="#e58649" stroke-width="1.51"/><path d="M1397,167L1261,360L1327,362Z" fill="#dc7239" stroke="#dc7239" stroke-width="1.51"/><path d="M-114,596L-75,752L124,664Z" fill="#c45d29" stroke="#c45d29" stroke-width="1.51"/><path d="M1375,399L1397,167L1327,362Z" fill="#dc743c" stroke="#dc743c" stroke-width="1.51"/><path d="M92,-17L-29,-26L99,78Z" fill="#ac461f" stroke="#ac461f" stroke-width="1.51"/><path d="M-52,197L-179,297L-36,293Z" fill="#ba4c20" stroke="#ba4c20" stroke-width="1.51"/><path d="M61,-175L-29,-26L92,-17Z" fill="#aa461f" stroke="#aa461f" stroke-width="1.51"/><path d="M843,1101L987,1125L1016,952Z" fill="#e48245" stroke="#e48245" stroke-width="1.51"/><path d="M565,1120L987,1125L843,1101Z" fill="#dc7f45" stroke="#dc7f45" stroke-width="1.51"/><path d="M565,1120L291,1127L987,1125Z" fill="#db7a42" stroke="#db7a42" stroke-width="1.51"/><path d="M392,1075L291,1127L565,1120Z" fill="#dc763f" stroke="#dc763f" stroke-width="1.51"/><path d="M71,1128L291,1127L297,960Z" fill="#d8713d" stroke="#d8713d" stroke-width="1.51"/><path d="M1296,669L1486,670L1375,399Z" fill="#e27f42" stroke="#e27f42" stroke-width="1.51"/><path d="M1375,399L1504,190L1397,167Z" fill="#dc743e" stroke="#dc743e" stroke-width="1.51"/><path d="M1374,914L1257,678L1141,868Z" fill="#e78749" stroke="#e78749" stroke-width="1.51"/><path d="M59,928L71,1128L297,960Z" fill="#d2703d" stroke="#d2703d" stroke-width="1.51"/><path d="M-75,752L-35,853L130,739Z" fill="#c76431" stroke="#c76431" stroke-width="1.51"/><path d="M277,-149L61,-175L92,-17Z" fill="#b0461e" stroke="#b0461e" stroke-width="1.51"/><path d="M368,-178L61,-175L277,-149Z" fill="#b6471e" stroke="#b6471e" stroke-width="1.51"/><path d="M771,-231L61,-175L368,-178Z" fill="#ba4b20" stroke="#ba4b20" stroke-width="1.51"/><path d="M1335,30L1259,-133L1143,21Z" fill="#c66431" stroke="#c66431" stroke-width="1.51"/><path d="M1069,-171L1389,-227L771,-231Z" fill="#c45d29" stroke="#c45d29" stroke-width="1.51"/><path d="M-186,86L-179,297L-52,197Z" fill="#b8491f" stroke="#b8491f" stroke-width="1.51"/><path d="M-75,752L-158,956L-35,853Z" fill="#c86a39" stroke="#c86a39" stroke-width="1.51"/><path d="M-114,596L-187,689L-75,752Z" fill="#c45d2a" stroke="#c45d2a" stroke-width="1.51"/><path d="M-262,476L-114,596L-20,511Z" fill="#bd5625" stroke="#bd5625" stroke-width="1.51"/><path d="M-187,591L-187,689L-114,596Z" fill="#c35b27" stroke="#c35b27" stroke-width="1.51"/><path d="M-29,-26L-186,86L-52,197Z" fill="#b0461e" stroke="#b0461e" stroke-width="1.51"/><path d="M61,-175L-78,-107L-29,-26Z" fill="#a8451f" stroke="#a8451f" stroke-width="1.51"/><path d="M-179,297L-262,476L-20,511Z" fill="#b85224" stroke="#b85224" stroke-width="1.51"/><path d="M-78,-107L-186,86L-29,-26Z" fill="#a8451f" stroke="#a8451f" stroke-width="1.51"/><path d="M1382,723L1486,670L1296,669Z" fill="#e68547" stroke="#e68547" stroke-width="1.51"/><path d="M1516,725L1486,670L1382,723Z" fill="#e6884b" stroke="#e6884b" stroke-width="1.51"/><path d="M1557,234L1504,190L1375,399Z" fill="#dd7640" stroke="#dd7640" stroke-width="1.51"/><path d="M1397,167L1484,-91L1335,30Z" fill="#cc6d3b" stroke="#cc6d3b" stroke-width="1.51"/><path d="M1335,30L1484,-91L1259,-133Z" fill="#c86a38" stroke="#c86a38" stroke-width="1.51"/><path d="M1152,1002L1374,914L1141,868Z" fill="#e88c4f" stroke="#e88c4f" stroke-width="1.51"/><path d="M1406,1027L1374,914L1152,1002Z" fill="#e99155" stroke="#e99155" stroke-width="1.51"/><path d="M-187,591L-262,476L-187,689Z" fill="#c25925" stroke="#c25925" stroke-width="1.51"/><path d="M-252,15L-262,476L-179,297Z" fill="#ba4c20" stroke="#ba4c20" stroke-width="1.51"/><path d="M-96,1091L71,1128L59,928Z" fill="#ca6e3e" stroke="#ca6e3e" stroke-width="1.51"/><path d="M291,1127L1517,1147L987,1125Z" fill="#e38245" stroke="#e38245" stroke-width="1.51"/><path d="M-158,956L59,928L-35,853Z" fill="#c96e3e" stroke="#c96e3e" stroke-width="1.51"/><path d="M1486,670L1564,390L1375,399Z" fill="#dc7e45" stroke="#dc7e45" stroke-width="1.51"/><path d="M1704,606L1706,439L1564,390Z" fill="#db7e44" stroke="#db7e44" stroke-width="1.51"/><path d="M1452,879L1516,725L1382,723Z" fill="#e88d51" stroke="#e88d51" stroke-width="1.51"/><path d="M1564,390L1557,234L1375,399Z" fill="#dd7942" stroke="#dd7942" stroke-width="1.51"/><path d="M1504,190L1484,-91L1397,167Z" fill="#d2703d" stroke="#d2703d" stroke-width="1.51"/><path d="M1374,914L1452,879L1382,723Z" fill="#e99055" stroke="#e99055" stroke-width="1.51"/><path d="M1406,1027L1452,879L1374,914Z" fill="#ea965c" stroke="#ea965c" stroke-width="1.51"/><path d="M-237,1028L-158,956L-187,689Z" fill="#c96d3d" stroke="#c96d3d" stroke-width="1.51"/><path d="M-187,689L-158,956L-75,752Z" fill="#c76533" stroke="#c76533" stroke-width="1.51"/><path d="M-186,86L-252,15L-179,297Z" fill="#b5471e" stroke="#b5471e" stroke-width="1.51"/><path d="M-78,-107L-252,15L-186,86Z" fill="#a8451f" stroke="#a8451f" stroke-width="1.51"/><path d="M1645,95L1484,-91L1504,190Z" fill="#d06f3d" stroke="#d06f3d" stroke-width="1.51"/><path d="M1259,-133L1389,-227L1069,-171Z" fill="#c66330" stroke="#c66330" stroke-width="1.51"/><path d="M1484,-91L1389,-227L1259,-133Z" fill="#c96b39" stroke="#c96b39" stroke-width="1.51"/><path d="M1704,606L1486,670L1516,725Z" fill="#e68649" stroke="#e68649" stroke-width="1.51"/><path d="M1517,1147L1406,1027L1152,1002Z" fill="#e99359" stroke="#e99359" stroke-width="1.51"/><path d="M-158,956L-96,1091L59,928Z" fill="#c96e3e" stroke="#c96e3e" stroke-width="1.51"/><path d="M1484,-91L1485,-179L1389,-227Z" fill="#c96e3e" stroke="#c96e3e" stroke-width="1.51"/><path d="M1619,-123L1485,-179L1484,-91Z" fill="#c96e3e" stroke="#c96e3e" stroke-width="1.51"/><path d="M1557,234L1645,95L1504,190Z" fill="#da723d" stroke="#da723d" stroke-width="1.51"/><path d="M1564,390L1684,316L1557,234Z" fill="#dd7841" stroke="#dd7841" stroke-width="1.51"/><path d="M1706,439L1684,316L1564,390Z" fill="#db7a42" stroke="#db7a42" stroke-width="1.51"/><path d="M1564,390L1486,670L1704,606Z" fill="#e18145" stroke="#e18145" stroke-width="1.51"/><path d="M1684,316L1645,95L1557,234Z" fill="#db743e" stroke="#db743e" stroke-width="1.51"/><path d="M-78,-107L-269,-132L-252,15Z" fill="#a8451f" stroke="#a8451f" stroke-width="1.51"/><path d="M-252,15L-269,-132L-262,476Z" fill="#b3461e" stroke="#b3461e" stroke-width="1.51"/><path d="M61,-175L-269,-132L-78,-107Z" fill="#a8451f" stroke="#a8451f" stroke-width="1.51"/><path d="M1704,606L1516,725L1723,778Z" fill="#e6884b" stroke="#e6884b" stroke-width="1.51"/><path d="M1689,-3L1484,-91L1645,95Z" fill="#c96e3e" stroke="#c96e3e" stroke-width="1.51"/><path d="M-158,956L-237,1028L-96,1091Z" fill="#c96e3e" stroke="#c96e3e" stroke-width="1.51"/><path d="M-262,476L-237,1028L-187,689Z" fill="#c5602d" stroke="#c5602d" stroke-width="1.51"/><path d="M1622,927L1516,725L1452,879Z" fill="#e99358" stroke="#e99358" stroke-width="1.51"/><path d="M1406,1027L1622,927L1452,879Z" fill="#ea975e" stroke="#ea975e" stroke-width="1.51"/><path d="M1485,-179L1878,-118L1389,-227Z" fill="#c96e3e" stroke="#c96e3e" stroke-width="1.51"/><path d="M1689,-3L1619,-123L1484,-91Z" fill="#c96e3e" stroke="#c96e3e" stroke-width="1.51"/><path d="M1689,-3L1645,95L1810,188Z" fill="#d3703d" stroke="#d3703d" stroke-width="1.51"/><path d="M1770,275L1645,95L1684,316Z" fill="#db743f" stroke="#db743f" stroke-width="1.51"/><path d="M1878,377L1770,275L1706,439Z" fill="#dc7a42" stroke="#dc7a42" stroke-width="1.51"/><path d="M1706,439L1770,275L1684,316Z" fill="#dc7941" stroke="#dc7941" stroke-width="1.51"/><path d="M1704,606L1800,639L1706,439Z" fill="#e28145" stroke="#e28145" stroke-width="1.51"/><path d="M1622,927L1723,778L1516,725Z" fill="#e99054" stroke="#e99054" stroke-width="1.51"/><path d="M1762,940L1744,765L1723,778Z" fill="#e99156" stroke="#e99156" stroke-width="1.51"/><path d="M1406,1027L1517,1147L1622,927Z" fill="#ea975e" stroke="#ea975e" stroke-width="1.51"/><path d="M987,1125L1517,1147L1152,1002Z" fill="#e88c4f" stroke="#e88c4f" stroke-width="1.51"/><path d="M71,1128L1517,1147L291,1127Z" fill="#db7b43" stroke="#db7b43" stroke-width="1.51"/><path d="M1723,778L1744,765L1704,606Z" fill="#e7894c" stroke="#e7894c" stroke-width="1.51"/><path d="M1762,940L1723,778L1622,927Z" fill="#ea965c" stroke="#ea965c" stroke-width="1.51"/><path d="M1744,765L1800,639L1704,606Z" fill="#e68749" stroke="#e68749" stroke-width="1.51"/><path d="M1770,275L1810,188L1645,95Z" fill="#da733d" stroke="#da733d" stroke-width="1.51"/><path d="M1689,-3L1833,-50L1619,-123Z" fill="#c96e3e" stroke="#c96e3e" stroke-width="1.51"/><path d="M1878,377L1810,188L1770,275Z" fill="#dd7740" stroke="#dd7740" stroke-width="1.51"/><path d="M1517,1147L1616,1134L1622,927Z" fill="#ea975e" stroke="#ea975e" stroke-width="1.51"/><path d="M1744,765L1870,1028L1800,639Z" fill="#e99054" stroke="#e99054" stroke-width="1.51"/><path d="M1800,639L1878,377L1706,439Z" fill="#db7e45" stroke="#db7e45" stroke-width="1.51"/><path d="M1800,639L1870,1028L1878,377Z" fill="#e6874a" stroke="#e6874a" stroke-width="1.51"/><path d="M1616,1134L1762,940L1622,927Z" fill="#ea975e" stroke="#ea975e" stroke-width="1.51"/><path d="M1878,-118L1833,-50L1810,188Z" fill="#ca6e3e" stroke="#ca6e3e" stroke-width="1.51"/><path d="M1810,188L1833,-50L1689,-3Z" fill="#ce6f3d" stroke="#ce6f3d" stroke-width="1.51"/><path d="M1619,-123L1878,-118L1485,-179Z" fill="#c96e3e" stroke="#c96e3e" stroke-width="1.51"/><path d="M1878,377L1878,-118L1810,188Z" fill="#d9713d" stroke="#d9713d" stroke-width="1.51"/><path d="M1833,-50L1878,-118L1619,-123Z" fill="#c96e3e" stroke="#c96e3e" stroke-width="1.51"/><path d="M1616,1134L1870,1028L1762,940Z" fill="#ea975e" stroke="#ea975e" stroke-width="1.51"/><path d="M1762,940L1870,1028L1744,765Z" fill="#ea975e" stroke="#ea975e" stroke-width="1.51"/></svg>